P1
# Created by GIMP version 2.10.2 PNM plug-in
11 5
0000000000001110011100010100101000111001110000000000000