P1
# Created by GIMP version 2.10.2 PNM plug-in
62 37
0000000000000000000000000000000000000000000000000000000000000000000000
0000000000000000000000000000000000000000000000000000000000000000000000
0000000000000000000000000000000000000000000000000011111111111111111111
1111111111111111111111111111111100000000010000000000000000000000000000
0000000000000000000000001000000010000000000000000000000000000000000000
0000000000000000010000001000000000000000000000000000000000000000000000
0000000001000000100000000000000000000000000000000000000000000000000000
0100000010000000000000000000000000000000000000000000000000000001000000
0100000000000000000000000000000000000000000000000000001000000000111111
1111111111111110000000000111111111111111111111000000000000000000000000
0000000100000000100000000000000000000000000000000000000000000000000000
1000000100000000000000000000000000000000000000000000000000000010000001
0000000000000000000000000000000000000000000000000000001000000100000000
0000000000000000000000000000000000000000000000100000010000000000000000
0000000000000000000000000000000000000010000001000000000000000000000000
0000000000000000000000000000001000000100000000000000000000000000000000
0000000000000000000000100000010000000000000000000000000000000000000000
0000000000000010000001000000000000000000000000000000000000000000000000
0000001000000100000000000000000000000000000000000000000000000000000010
0000010000000000000000000000000000000000000000000000000000001000000100
0000000000000000000000000000000000000000000000000000100000010000000000
0000000000000000000000000000000000000000000010000001000000000000000000
0000000000000000000000000000000000001000000100000000000000000000000000
0000000000000000000000000000100000010000000000000000000000000000000000
0000000000000000000010000001000000000000000000000000000000000000000000
0000000000001000000100000000000000000000000000000000000000000000000000
0000100000010000000000000000000000000000000000000000000000000000001000
0001000000000000000000000000000000000000000000000000000000100000010000
0000000000000000000000000000000000000000000000000010000001000000000000
0000000000000000000000000000000000000000000100001000000000000000000000
0000000000000000000000000000000000001111000000000000000000000000000000
0000000000000000000000000000000000000000000000000000000000000000000000
000000000000000000000000000000000000000000000000000000